<?xml version="1.0" encoding="utf-8"?>
<!-- Generator: Adobe Illustrator 19.1.0, SVG Export Plug-In . SVG Version: 6.00 Build 0)  -->
<!DOCTYPE svg PUBLIC "-//W3C//DTD SVG 1.1//EN" "http://www.w3.org/Graphics/SVG/1.1/DTD/svg11.dtd">
<svg version="1.1" id="lust" xmlns="http://www.w3.org/2000/svg" xmlns:xlink="http://www.w3.org/1999/xlink" x="0px" y="0px"
	 viewBox="-519 341 40 40" style="enable-background:new -519 341 40 40;" xml:space="preserve">
<style type="text/css">
	.st0{fill:#FFFFFF;}
</style>
<path class="st0" d="M-490.9,363.5c0-4.3-1.1-7.2-2.8-8.6l0,0c0,0-0.1,0-0.1,0.1c0.3,2.3-1.5,2.2-1.5,2.2s-1.9,0.2-1.9-4
	c0,0,0-3.2-3.1-5.3c-0.1-0.1-0.2,0-0.2,0.2c0.9,4.1-3,8.5-3,8.5c-3.1,3.4-2.9,7-2.9,7v0.1c0,4.2,3.5,7.6,7.8,7.6
	c4.3,0,7.5-3.3,7.6-7.5C-490.9,363.7-490.8,363.6-490.9,363.5L-490.9,363.5z M-495.3,364.9c0,1.8-1.4,3.2-3.3,3.2
	c-1.8,0-3.4-1.5-3.4-3.3v-0.1c0,0-0.1-1.6,1.2-3c0,0,1.7-1.9,1.3-3.7c0-0.1,0.1-0.1,0.1-0.1c1.4,0.9,1.4,2.3,1.4,2.3
	c0,1.8,0.8,1.7,0.8,1.7s0.8,0,0.7-1l0,0l0,0c0.8,0.6,1.2,1.9,1.2,3.8l0,0C-495.3,364.8-495.3,364.8-495.3,364.9z"/>
</svg>
