<?xml version="1.0" encoding="utf-8"?>
<svg version="1.1" id="lust" xmlns="http://www.w3.org/2000/svg" xmlns:xlink="http://www.w3.org/1999/xlink" x="0px" y="0px"
	 viewBox="0 0 200 50" enable-background="new 0 0 200 50" xml:space="preserve">
<path class="color-primary" fill="#929497" d="M27.1,46.8c-5.2,0-9.7-3.1-9.7-9.8V9.6c0-0.7,0.6-1.3,1.3-1.3h2.2c4.3,0,6.3,2,6.3,6.7v20.5
	c0,2.5,1.4,3.3,4.1,3.3h0c1.2,0,2.2,1,2.2,2.2v1.2C33.5,45.7,30.2,46.8,27.1,46.8z"/>
<path class="color-primary" fill="#929497" d="M51,47.2c-9.2,0-14.1-4.5-14.1-13.5V20.8c0-1.5,1.2-2.7,2.7-2.7h1.1c4.3,0,6.1,1.4,6.1,5.8v10.1
	c0,4.2,2,5.5,4.6,5.5c2.3,0,4.2-1.3,4.2-5.8V20.8c0-1.5,1.2-2.7,2.7-2.7h1.1c3.9,0,6.1,1.6,6.1,5.8v10.1C65.5,43,59.7,47.2,51,47.2z
	"/>
<path class="color-primary" fill="#929497" d="M82,47.2c-7.7,0-10.5-2.8-10.5-6.9v-2.6c0-0.1,0.1-0.2,0.2-0.2l0,0c0,0,0.1,0,0.1,0c1.9,1.4,4.7,2.4,8.6,2.4
	c3.5,0,4.7-0.8,4.7-2.2c0-1.3-0.7-1.8-6.5-2.6c-5.1-0.7-7.8-3-7.8-7.6c0-6.8,6.4-10.2,12.9-10.2c6.3,0,10.1,2.5,10.1,6.7v1.2
	c0,0.8-0.8,1.3-1.5,0.9c-1.5-0.7-4.2-1.6-7.5-1.6c-3.7,0-4.8,1-4.8,2.2c0,1.1,0.6,1.4,6.5,2.4c4.7,0.8,7.9,3.3,7.9,8.1
	C94.5,43.3,89.8,47.2,82,47.2z"/>
<path class="color-primary" fill="#929497" d="M103.7,13.1c1.3-1,3-1.9,5.1-1.9l0,0c0.6,0,1,0.5,1,1v5.9h7.3c0.6,0,1,0.5,1,1v2.4c0,2.4-2.6,4.3-4.8,4.3
	h-3.5l0,10.2c0,1.7,1.4,3,3,3c1.9,0,3.2-0.2,3.9-0.4c0.4-0.1,0.8,0.2,0.8,0.7v2.9c0,2.4-2.2,4.5-7.3,4.5c-4.8,0-10-2.3-10-10.1V19.2
	C100.4,16.6,101.8,14.5,103.7,13.1z"/>
<path class="color-secondary" fill="#EA3362" d="M156.6,32.8c0-8.8-2.3-14.6-5.7-17.5c0,0,0,0,0,0c-0.1-0.1-0.2,0-0.2,0.1c0.6,4.6-3,4.4-3,4.4
	s-3.8,0.3-3.8-8.1c0,0-0.1-6.5-6.3-10.7c-0.2-0.1-0.4,0-0.4,0.3c1.9,8.4-6.1,17.3-6.1,17.3c-6.2,6.8-5.8,14.2-5.8,14.2l0,0.2
	c0,8.6,7.2,15.5,15.8,15.5c8.8,0,15.4-6.8,15.5-15.2C156.6,33.2,156.7,33,156.6,32.8L156.6,32.8z M147.7,35.6
	c-0.1,3.7-2.9,6.6-6.8,6.6c-3.7,0-6.9-3-6.9-6.8l0-0.1c0,0-0.2-3.2,2.5-6.2c0,0,3.5-3.9,2.6-7.5c0-0.1,0.1-0.2,0.2-0.1
	c2.7,1.8,2.8,4.7,2.8,4.7c0,3.6,1.7,3.5,1.7,3.5s1.6,0.1,1.3-1.9c0,0,0-0.1,0.1,0c0,0,0,0,0,0c1.5,1.3,2.5,3.8,2.5,7.6h0
	C147.7,35.5,147.7,35.6,147.7,35.6z"/>
<path class="color-primary" fill="#929497" d="M178.2,36.4c0,1-0.5,1.6-1.6,1.6h-6.8c-3.1,0-4.3,1.1-4.3,3.8c0,2.2,1.2,3.5,4.3,3.5h7.9
	c0.3,0,0.5,0.2,0.5,0.5v0.4c0,0.9-0.6,1.6-1.7,1.6h-6.8c-4.2,0-6.6-2.5-6.6-6.3c0-3.7,2.1-6,6.6-6h8c0.3,0,0.5,0.2,0.5,0.5V36.4z"/>
<path class="color-primary" fill="#929497" d="M172,26.2v3.7c2.5-0.2,4.2-2,4.2-4.7c0-1.7-0.9-3.4-1.3-4.2c-0.1-0.2,0-0.4,0.2-0.4h0.6c1.6,0,2.7,1.7,2.7,5
	c0,4.1-3.1,6.9-7.4,6.9c-4.8,0-8-3-8-6.9c0-2.9,2.2-5.6,5.1-5.6C170.9,19.9,172,21.1,172,26.2z M165.4,25.8c0,2.4,2,4,4,4.1l0.6,0
	l-0.1-3.4c-0.1-3.6-0.4-4.2-1.5-4.2C166.8,22.4,165.4,23.5,165.4,25.8z"/>
<path class="color-primary" fill="#929497" d="M163.5,14.4V9.7c0-0.1,0.1-0.2,0.2-0.2h0.6c0.9,0,1.5,0.6,1.5,1.9v2.9c0,0.1,0.1,0.2,0.2,0.2h7.1
	c2.1,0,3-0.8,3-2.4c0-0.7-0.2-1.7-0.3-2.2c0-0.1,0.1-0.3,0.2-0.3h0.6c1.2,0,1.9,1,1.9,2.7c0,3.3-1.7,4.7-5.1,4.7h-9.6
	c-0.9,0-1.7-0.2-2.3-0.6c-0.5-0.4-1.1-1.2-1.1-1.6v-0.1c0-0.1,0.1-0.2,0.2-0.2h2.6C163.4,14.6,163.5,14.5,163.5,14.4z"/>
</svg>
