<?xml version="1.0" encoding="utf-8"?>
<!-- Generator: Adobe Illustrator 17.0.1, SVG Export Plug-In . SVG Version: 6.00 Build 0)  -->
<!DOCTYPE svg PUBLIC "-//W3C//DTD SVG 1.1//EN" "http://www.w3.org/Graphics/SVG/1.1/DTD/svg11.dtd">
<svg version="1.1" id="Layer_1" xmlns="http://www.w3.org/2000/svg" xmlns:xlink="http://www.w3.org/1999/xlink" x="0px" y="0px"
	 width="600px" height="180px" viewBox="0 0 600 180" style="enable-background:new 0 0 600 180;" xml:space="preserve">
<g>
	<path style="fill:#CCCCCC;" d="M336.352,133.896c-0.066-0.159-0.133-0.317-0.208-0.477c-0.043-0.092-0.091-0.185-0.137-0.278
		c-0.073-0.146-0.147-0.292-0.227-0.439c-0.053-0.098-0.109-0.196-0.165-0.294c-0.082-0.143-0.168-0.287-0.256-0.431
		c-0.061-0.098-0.122-0.197-0.186-0.295c-0.095-0.146-0.194-0.293-0.296-0.44c-0.066-0.095-0.13-0.19-0.199-0.285
		c-0.114-0.158-0.234-0.316-0.356-0.474c-0.064-0.083-0.125-0.166-0.19-0.249c-0.175-0.22-0.357-0.198-0.546-0.417
		c-0.017-0.02-0.003,0.182-0.02,0.182c0,0,0.434,0,0.434,0s0-0.485,0-0.486c0-0.322-0.812-0.642-1.121-0.962
		c-0.082-0.085-0.283-0.17-0.367-0.255c-0.268-0.269-0.603-0.537-0.892-0.804c-0.06-0.055-0.145-0.111-0.206-0.166
		c-0.35-0.318-0.729-0.634-1.108-0.948c-0.076-0.063-0.162-0.125-0.239-0.188c-0.326-0.266-0.666-0.529-1.013-0.791
		c-0.083-0.063-0.167-0.126-0.251-0.189c-0.426-0.316-0.865-0.629-1.319-0.938c-0.011-0.008-0.024-0.015-0.035-0.023
		c-0.442-0.3-0.902-0.596-1.37-0.888c-0.082-0.051-0.164-0.102-0.247-0.153c-0.992-0.61-2.039-1.2-3.14-1.767
		c-0.052-0.027-0.105-0.053-0.157-0.08c-0.546-0.279-1.103-0.552-1.674-0.818c-0.013-0.006-0.026-0.012-0.039-0.019
		c-1.208-0.563-2.473-1.096-3.787-1.596c-0.027-0.01-0.054-0.021-0.081-0.031c-1.318-0.499-2.686-0.963-4.102-1.388
		c-0.017-0.005-0.034-0.01-0.051-0.015c-2.71-0.81-5.588-1.475-8.609-1.953c-0.036-0.006-0.072-0.012-0.109-0.018
		c-0.648-0.101-1.3-0.197-1.96-0.281l-1.154-0.147l-2.012-14.524l0.631-0.54c0.257-0.22,0.51-0.452,0.76-0.689
		c0.061-0.058,0.12-0.119,0.181-0.177c0.195-0.19,0.389-0.384,0.58-0.584c0.055-0.057,0.109-0.116,0.163-0.174
		c0.205-0.219,0.407-0.444,0.607-0.674c0.033-0.038,0.066-0.076,0.099-0.114c0.234-0.272,0.464-0.551,0.69-0.838c0,0,0,0,0-0.001
		c0,0,0,0,0,0c0.337-0.427,0.666-0.87,0.986-1.325c0.009-0.013,0.018-0.026,0.027-0.039c0.963-1.373,1.848-2.865,2.65-4.434
		c0.007-0.015,0.015-0.029,0.022-0.044c0.8-1.569,1.516-3.211,2.141-4.884c0.007-0.018,0.013-0.036,0.02-0.053
		c0.624-1.674,1.157-3.374,1.594-5.059c0.004-0.014,0.008-0.029,0.011-0.043c0.436-1.692,0.775-3.364,1.008-4.974
		c0.001-0.005,0.002-0.01,0.002-0.015c0.25-1.727,0.382-3.383,0.382-4.905c0-14.229-11.02-25.806-24.566-25.806
		c-13.546,0-24.566,11.404-24.566,25.423c0,0.723,0.042,1.487,0.103,2.266c0.022,0.284,0.045,0.569,0.076,0.86
		c0.027,0.263,0.059,0.529,0.093,0.797c0.036,0.286,0.077,0.574,0.12,0.864c0.039,0.263,0.076,0.524,0.121,0.79
		c0.085,0.502,0.179,1.01,0.284,1.522c0.053,0.257,0.115,0.516,0.173,0.775c0.071,0.316,0.143,0.632,0.221,0.95
		c0.07,0.284,0.143,0.567,0.219,0.853c0.082,0.308,0.168,0.615,0.256,0.924c0.08,0.278,0.157,0.555,0.242,0.834
		c0.158,0.518,0.325,1.036,0.501,1.553c0.093,0.274,0.195,0.545,0.294,0.818c0.113,0.314,0.227,0.627,0.347,0.939
		c0.111,0.289,0.225,0.575,0.342,0.862c0.12,0.296,0.245,0.591,0.371,0.884c0.12,0.279,0.238,0.558,0.363,0.835
		c0.21,0.462,0.427,0.92,0.651,1.373c0.149,0.301,0.304,0.595,0.459,0.891c0.149,0.285,0.299,0.57,0.454,0.85
		c0.149,0.269,0.301,0.535,0.456,0.799c0.156,0.267,0.316,0.529,0.477,0.791c0.156,0.252,0.309,0.505,0.47,0.751
		c0.292,0.447,0.59,0.885,0.897,1.309l0,0c0.157,0.217,0.321,0.423,0.482,0.634c0.201,0.263,0.402,0.524,0.608,0.776
		c0.162,0.198,0.326,0.389,0.492,0.58c0.237,0.274,0.478,0.538,0.723,0.797c0.14,0.148,0.278,0.298,0.421,0.441
		c0.395,0.397,0.796,0.779,1.209,1.133l0.623,0.534l-1.993,15.519l-1.166,0.148c-0.74,0.094-1.469,0.203-2.194,0.319
		c-0.122,0.02-0.243,0.04-0.365,0.06c-2.243,0.372-4.407,0.845-6.479,1.404c-0.042,0.011-0.084,0.023-0.126,0.034
		c-1.412,0.384-2.781,0.807-4.103,1.266c-0.023,0.008-0.045,0.016-0.068,0.024c-0.64,0.223-1.269,0.454-1.887,0.692
		c-0.029,0.011-0.058,0.022-0.087,0.033c-1.253,0.486-2.458,1.004-3.612,1.547c-0.067,0.031-0.133,0.063-0.199,0.094
		c-1.136,0.54-2.223,1.105-3.254,1.691c-0.055,0.031-0.109,0.063-0.164,0.095c-0.45,0.258-0.889,0.52-1.319,0.786
		c-0.079,0.049-0.159,0.097-0.237,0.146c-0.938,0.589-1.823,1.194-2.653,1.812c-0.091,0.068-0.18,0.136-0.27,0.204
		c-0.345,0.262-0.68,0.526-1.005,0.791c-0.061,0.05-0.125,0.1-0.186,0.15c-0.375,0.311-0.735,0.624-1.081,0.939
		c-0.065,0.059-0.127,0.119-0.191,0.179c-0.279,0.259-0.549,0.519-0.808,0.78c-0.081,0.081-0.162,0.162-0.24,0.243
		c-0.363,0.374-0.705,0.75-1.026,1.126c-0.153,0.18-0.305,0.36-0.448,0.54c-0.076,0.095-0.146,0.19-0.219,0.285
		c-0.112,0.145-0.223,0.29-0.328,0.436c-0.074,0.102-0.144,0.204-0.215,0.307c-0.096,0.139-0.191,0.278-0.281,0.417
		c-0.067,0.103-0.132,0.206-0.195,0.309c-0.086,0.14-0.169,0.279-0.25,0.418c-0.058,0.1-0.115,0.201-0.17,0.301
		c-0.078,0.144-0.152,0.288-0.224,0.432c-0.047,0.095-0.096,0.189-0.14,0.283c-0.074,0.158-0.141,0.315-0.207,0.473
		c-0.033,0.079-0.069,0.241-0.1,0.319c-0.092,0.235-0.177,0.786-0.249,0.786h99.51c-0.073,0-0.157-0.551-0.249-0.787
		C336.42,134.135,336.384,133.974,336.352,133.896z"/>
	<path style="fill:#CCCCCC;" d="M328.675,115.289l-1.159-7.682c4.981-4.266,8.304-13.268,8.304-19.778
		c0-9.967-7.786-18.046-17.39-18.046c-1.341,0-2.644,0.178-3.897,0.476c0.006,0.244,0.018,0.494,0.018,0.74
		c0,8.721-4.004,21.478-10.62,28.972c1.401,3.045,3.25,5.792,5.413,7.645l-0.826,5.398C321.445,115.84,332.466,123,337.389,129
		h15.456C352.183,124,342.221,117.014,328.675,115.289z"/>
	<path style="fill:#CCCCCC;" d="M263.898,113.386l-0.871-5.73c2.606-2.232,4.751-5.713,6.211-9.516
		c-6.215-7.472-9.852-19.055-9.894-27.4c-1.701-0.579-3.516-0.879-5.403-0.879c-9.604,0-17.39,8.074-17.39,18.041
		c0,6.511,3.323,15.51,8.304,19.777l-1.159,7.646c-13.547,1.724-23.508,8.676-24.17,13.676h16.982
		C241.244,123,251.615,116.353,263.898,113.386z"/>
</g>
<path style="fill:#CCCCCC;" d="M142.095,72.744c-1.265-0.139-2.694-0.362-4.244-0.577c-1.547-0.259-3.22-0.504-4.971-0.848
	c-1.752-0.33-3.583-0.729-5.447-1.204c-0.94-0.208-1.868-0.502-2.818-0.752c-0.94-0.28-1.884-0.578-2.823-0.896
	c-1.875-0.644-3.708-1.423-5.478-2.243c-3.491-1.719-6.631-3.882-8.674-6.504c-1.024-1.307-1.802-2.682-2.393-4.045
	c-0.583-1.369-1.05-2.691-1.403-3.973c-0.367-1.272-0.685-2.47-0.936-3.568c-0.137-0.575-0.259-1.119-0.368-1.626l7.323,0.275
	L98.636,25.535L85.847,45.881l7.714,0.289c0.004,0.498,0.032,1.055,0.087,1.66c0.026,0.307,0.046,0.626,0.082,0.959
	c0.046,0.333,0.095,0.678,0.144,1.035c0.081,0.713,0.267,1.473,0.432,2.274c0.21,0.797,0.428,1.638,0.747,2.5
	c0.155,0.433,0.324,0.869,0.503,1.313c0.192,0.443,0.412,0.884,0.624,1.335c0.459,0.892,0.948,1.809,1.568,2.689
	c1.192,1.78,2.668,3.514,4.367,5.064c1.689,1.561,3.588,2.943,5.602,4.087c2.013,1.149,4.132,2.074,6.267,2.834
	c2.14,0.739,4.311,1.273,6.439,1.697c1.065,0.203,2.122,0.38,3.164,0.537c1.044,0.126,2.07,0.297,3.082,0.378
	c2.024,0.197,3.974,0.308,5.817,0.367c1.844,0.067,3.58,0.068,5.181,0.049c1.601-0.052,3.06-0.075,4.359-0.154
	c1.295-0.074,2.429-0.134,3.347-0.22c1.843-0.156,2.896-0.245,2.896-0.245l0.009-0.893c0,0-1.051-0.11-2.89-0.301
	C144.464,73.054,143.364,72.883,142.095,72.744z"/>
</svg>
